<svg xmlns="http://www.w3.org/2000/svg" xmlns:xlink="http://www.w3.org/1999/xlink" width="1487" zoomAndPan="magnify" viewBox="0 0 1115.25 137.249994" height="183" preserveAspectRatio="xMidYMid meet" version="1.0"><defs><g/><clipPath id="0fb87dc1f7"><path d="M 0.0078125 1 L 2 1 L 2 3.914062 L 0.0078125 3.914062 Z M 0.0078125 1 " clip-rule="nonzero"/></clipPath><clipPath id="e847dbfc5e"><path d="M 1 1 L 4 1 L 4 3.914062 L 1 3.914062 Z M 1 1 " clip-rule="nonzero"/></clipPath><clipPath id="a667157eab"><path d="M 3 1 L 5 1 L 5 3.914062 L 3 3.914062 Z M 3 1 " clip-rule="nonzero"/></clipPath><clipPath id="bb0a58e527"><path d="M 4 1 L 7 1 L 7 3.914062 L 4 3.914062 Z M 4 1 " clip-rule="nonzero"/></clipPath><clipPath id="2aabdbcd82"><path d="M 6 3 L 7 3 L 7 3.914062 L 6 3.914062 Z M 6 3 " clip-rule="nonzero"/></clipPath><clipPath id="1726e93ea3"><path d="M 7 1 L 9 1 L 9 3.914062 L 7 3.914062 Z M 7 1 " clip-rule="nonzero"/></clipPath><clipPath id="50e16e1f1d"><path d="M 8 1 L 10 1 L 10 3.914062 L 8 3.914062 Z M 8 1 " clip-rule="nonzero"/></clipPath><clipPath id="f8803c646b"><path d="M 9 1 L 12 1 L 12 3.914062 L 9 3.914062 Z M 9 1 " clip-rule="nonzero"/></clipPath><clipPath id="db34be6c5d"><path d="M 11 1 L 12.898438 1 L 12.898438 3.914062 L 11 3.914062 Z M 11 1 " clip-rule="nonzero"/></clipPath><clipPath id="4249235556"><rect x="0" width="13" y="0" height="4"/></clipPath><clipPath id="cd513963da"><path d="M 0.398438 1 L 3 1 L 3 3.78125 L 0.398438 3.78125 Z M 0.398438 1 " clip-rule="nonzero"/></clipPath><clipPath id="e216c9339c"><path d="M 2 1 L 4 1 L 4 3.78125 L 2 3.78125 Z M 2 1 " clip-rule="nonzero"/></clipPath><clipPath id="d274168cec"><path d="M 3 1 L 5 1 L 5 3.78125 L 3 3.78125 Z M 3 1 " clip-rule="nonzero"/></clipPath><clipPath id="7bc0dddc74"><path d="M 4 1 L 7 1 L 7 3.78125 L 4 3.78125 Z M 4 1 " clip-rule="nonzero"/></clipPath><clipPath id="3731a02608"><path d="M 6 1 L 8 1 L 8 3.78125 L 6 3.78125 Z M 6 1 " clip-rule="nonzero"/></clipPath><clipPath id="222eed5aa4"><rect x="0" width="9" y="0" height="4"/></clipPath></defs><g transform="matrix(1, 0, 0, 1, 597, 114)"><g clip-path="url(#4249235556)"><g clip-path="url(#0fb87dc1f7)"><g fill="#e90000" fill-opacity="1"><g transform="translate(0.332617, 3.048007)"><g><path d="M 0.359375 -1.84375 L 1.25 -1.84375 C 1.289062 -1.84375 1.328125 -1.828125 1.359375 -1.796875 C 1.390625 -1.773438 1.40625 -1.738281 1.40625 -1.6875 C 1.40625 -1.644531 1.390625 -1.609375 1.359375 -1.578125 C 1.328125 -1.554688 1.289062 -1.546875 1.25 -1.546875 L 0.5 -1.546875 L 0.53125 -1.59375 L 0.53125 -1.078125 L 0.5 -1.09375 L 1.125 -1.09375 C 1.164062 -1.09375 1.203125 -1.078125 1.234375 -1.046875 C 1.265625 -1.023438 1.28125 -0.988281 1.28125 -0.9375 C 1.28125 -0.894531 1.265625 -0.859375 1.234375 -0.828125 C 1.203125 -0.804688 1.164062 -0.796875 1.125 -0.796875 L 0.515625 -0.796875 L 0.53125 -0.8125 L 0.53125 -0.28125 L 0.5 -0.296875 L 1.25 -0.296875 C 1.289062 -0.296875 1.328125 -0.28125 1.359375 -0.25 C 1.390625 -0.226562 1.40625 -0.195312 1.40625 -0.15625 C 1.40625 -0.101562 1.390625 -0.0625 1.359375 -0.03125 C 1.328125 -0.0078125 1.289062 0 1.25 0 L 0.359375 0 C 0.316406 0 0.28125 -0.015625 0.25 -0.046875 C 0.21875 -0.078125 0.203125 -0.113281 0.203125 -0.15625 L 0.203125 -1.6875 C 0.203125 -1.726562 0.21875 -1.765625 0.25 -1.796875 C 0.28125 -1.828125 0.316406 -1.84375 0.359375 -1.84375 Z M 0.359375 -1.84375 "/></g></g></g></g><g clip-path="url(#e847dbfc5e)"><g fill="#e90000" fill-opacity="1"><g transform="translate(1.685186, 3.048007)"><g><path d="M 0.796875 0.03125 C 0.671875 0.03125 0.554688 0.015625 0.453125 -0.015625 C 0.359375 -0.046875 0.265625 -0.101562 0.171875 -0.1875 C 0.148438 -0.207031 0.132812 -0.226562 0.125 -0.25 C 0.113281 -0.269531 0.109375 -0.296875 0.109375 -0.328125 C 0.109375 -0.367188 0.117188 -0.398438 0.140625 -0.421875 C 0.171875 -0.453125 0.210938 -0.46875 0.265625 -0.46875 C 0.296875 -0.46875 0.320312 -0.457031 0.34375 -0.4375 C 0.414062 -0.382812 0.484375 -0.34375 0.546875 -0.3125 C 0.609375 -0.289062 0.691406 -0.28125 0.796875 -0.28125 C 0.859375 -0.28125 0.914062 -0.289062 0.96875 -0.3125 C 1.019531 -0.332031 1.0625 -0.359375 1.09375 -0.390625 C 1.132812 -0.421875 1.15625 -0.457031 1.15625 -0.5 C 1.15625 -0.5625 1.140625 -0.609375 1.109375 -0.640625 C 1.078125 -0.679688 1.023438 -0.710938 0.953125 -0.734375 C 0.890625 -0.765625 0.8125 -0.785156 0.71875 -0.796875 C 0.625 -0.804688 0.539062 -0.828125 0.46875 -0.859375 C 0.394531 -0.890625 0.332031 -0.925781 0.28125 -0.96875 C 0.226562 -1.007812 0.191406 -1.0625 0.171875 -1.125 C 0.148438 -1.1875 0.140625 -1.253906 0.140625 -1.328125 C 0.140625 -1.441406 0.164062 -1.539062 0.21875 -1.625 C 0.28125 -1.707031 0.359375 -1.769531 0.453125 -1.8125 C 0.554688 -1.851562 0.671875 -1.875 0.796875 -1.875 C 0.910156 -1.875 1.015625 -1.851562 1.109375 -1.8125 C 1.210938 -1.78125 1.296875 -1.738281 1.359375 -1.6875 C 1.398438 -1.644531 1.421875 -1.597656 1.421875 -1.546875 C 1.421875 -1.515625 1.40625 -1.484375 1.375 -1.453125 C 1.351562 -1.421875 1.320312 -1.40625 1.28125 -1.40625 C 1.25 -1.40625 1.222656 -1.410156 1.203125 -1.421875 C 1.179688 -1.441406 1.144531 -1.460938 1.09375 -1.484375 C 1.039062 -1.515625 0.988281 -1.535156 0.9375 -1.546875 C 0.882812 -1.566406 0.835938 -1.578125 0.796875 -1.578125 C 0.722656 -1.578125 0.660156 -1.566406 0.609375 -1.546875 C 0.554688 -1.523438 0.515625 -1.492188 0.484375 -1.453125 C 0.460938 -1.421875 0.453125 -1.382812 0.453125 -1.34375 C 0.453125 -1.289062 0.460938 -1.25 0.484375 -1.21875 C 0.515625 -1.1875 0.5625 -1.160156 0.625 -1.140625 C 0.6875 -1.117188 0.753906 -1.097656 0.828125 -1.078125 C 0.941406 -1.054688 1.035156 -1.03125 1.109375 -1 C 1.191406 -0.976562 1.257812 -0.945312 1.3125 -0.90625 C 1.363281 -0.863281 1.398438 -0.8125 1.421875 -0.75 C 1.453125 -0.6875 1.46875 -0.613281 1.46875 -0.53125 C 1.46875 -0.414062 1.4375 -0.316406 1.375 -0.234375 C 1.3125 -0.148438 1.226562 -0.0820312 1.125 -0.03125 C 1.019531 0.0078125 0.910156 0.03125 0.796875 0.03125 Z M 0.796875 0.03125 "/></g></g></g></g><g clip-path="url(#a667157eab)"><g fill="#e90000" fill-opacity="1"><g transform="translate(3.103798, 3.048007)"><g><path d="M 0.828125 0 C 0.773438 0 0.734375 -0.015625 0.703125 -0.046875 C 0.671875 -0.078125 0.65625 -0.113281 0.65625 -0.15625 L 0.65625 -1.6875 L 1 -1.6875 L 1 -0.15625 C 1 -0.113281 0.984375 -0.078125 0.953125 -0.046875 C 0.921875 -0.015625 0.878906 0 0.828125 0 Z M 0.234375 -1.546875 C 0.191406 -1.546875 0.15625 -1.554688 0.125 -1.578125 C 0.09375 -1.609375 0.078125 -1.648438 0.078125 -1.703125 C 0.078125 -1.742188 0.09375 -1.773438 0.125 -1.796875 C 0.15625 -1.828125 0.191406 -1.84375 0.234375 -1.84375 L 1.40625 -1.84375 C 1.457031 -1.84375 1.5 -1.828125 1.53125 -1.796875 C 1.5625 -1.773438 1.578125 -1.742188 1.578125 -1.703125 C 1.578125 -1.648438 1.5625 -1.609375 1.53125 -1.578125 C 1.5 -1.554688 1.457031 -1.546875 1.40625 -1.546875 Z M 0.234375 -1.546875 "/></g></g></g></g><g clip-path="url(#bb0a58e527)"><g fill="#e90000" fill-opacity="1"><g transform="translate(4.599022, 3.048007)"><g><path d="M 0.984375 -1.84375 C 1.117188 -1.84375 1.234375 -1.816406 1.328125 -1.765625 C 1.421875 -1.722656 1.5 -1.660156 1.5625 -1.578125 C 1.632812 -1.492188 1.6875 -1.394531 1.71875 -1.28125 C 1.757812 -1.164062 1.78125 -1.046875 1.78125 -0.921875 C 1.78125 -0.753906 1.75 -0.597656 1.6875 -0.453125 C 1.625 -0.316406 1.535156 -0.207031 1.421875 -0.125 C 1.304688 -0.0390625 1.160156 0 0.984375 0 L 0.359375 0 C 0.316406 0 0.28125 -0.015625 0.25 -0.046875 C 0.21875 -0.078125 0.203125 -0.113281 0.203125 -0.15625 L 0.203125 -1.6875 C 0.203125 -1.726562 0.21875 -1.765625 0.25 -1.796875 C 0.28125 -1.828125 0.316406 -1.84375 0.359375 -1.84375 Z M 0.96875 -0.296875 C 1.070312 -0.296875 1.160156 -0.320312 1.234375 -0.375 C 1.304688 -0.4375 1.359375 -0.515625 1.390625 -0.609375 C 1.421875 -0.710938 1.4375 -0.816406 1.4375 -0.921875 C 1.4375 -1.003906 1.425781 -1.082031 1.40625 -1.15625 C 1.394531 -1.226562 1.367188 -1.289062 1.328125 -1.34375 C 1.285156 -1.40625 1.234375 -1.453125 1.171875 -1.484375 C 1.117188 -1.523438 1.050781 -1.546875 0.96875 -1.546875 L 0.5 -1.546875 L 0.53125 -1.5625 L 0.53125 -0.28125 L 0.515625 -0.296875 Z M 0.96875 -0.296875 "/></g></g></g></g><g clip-path="url(#2aabdbcd82)"><g fill="#e90000" fill-opacity="1"><g transform="translate(6.32936, 3.048007)"><g/></g></g></g><g clip-path="url(#1726e93ea3)"><g fill="#e90000" fill-opacity="1"><g transform="translate(6.910547, 3.048007)"><g><path d="M 1.203125 -0.296875 C 1.242188 -0.296875 1.28125 -0.28125 1.3125 -0.25 C 1.34375 -0.21875 1.359375 -0.179688 1.359375 -0.140625 C 1.359375 -0.0976562 1.34375 -0.0625 1.3125 -0.03125 C 1.28125 -0.0078125 1.242188 0 1.203125 0 L 0.3125 0 C 0.269531 0 0.234375 -0.0078125 0.203125 -0.03125 C 0.171875 -0.0625 0.15625 -0.101562 0.15625 -0.15625 C 0.15625 -0.195312 0.175781 -0.234375 0.21875 -0.265625 L 0.78125 -0.875 C 0.851562 -0.945312 0.90625 -1.019531 0.9375 -1.09375 C 0.976562 -1.164062 1 -1.234375 1 -1.296875 C 1 -1.378906 0.972656 -1.445312 0.921875 -1.5 C 0.867188 -1.550781 0.800781 -1.578125 0.71875 -1.578125 C 0.6875 -1.578125 0.648438 -1.566406 0.609375 -1.546875 C 0.578125 -1.535156 0.546875 -1.515625 0.515625 -1.484375 C 0.484375 -1.460938 0.453125 -1.429688 0.421875 -1.390625 C 0.398438 -1.367188 0.378906 -1.351562 0.359375 -1.34375 C 0.335938 -1.332031 0.316406 -1.328125 0.296875 -1.328125 C 0.265625 -1.328125 0.226562 -1.34375 0.1875 -1.375 C 0.15625 -1.40625 0.140625 -1.441406 0.140625 -1.484375 C 0.140625 -1.515625 0.148438 -1.539062 0.171875 -1.5625 C 0.191406 -1.59375 0.21875 -1.625 0.25 -1.65625 C 0.289062 -1.695312 0.335938 -1.734375 0.390625 -1.765625 C 0.453125 -1.796875 0.507812 -1.820312 0.5625 -1.84375 C 0.625 -1.863281 0.679688 -1.875 0.734375 -1.875 C 0.847656 -1.875 0.945312 -1.847656 1.03125 -1.796875 C 1.125 -1.753906 1.191406 -1.691406 1.234375 -1.609375 C 1.285156 -1.523438 1.3125 -1.421875 1.3125 -1.296875 C 1.3125 -1.203125 1.28125 -1.09375 1.21875 -0.96875 C 1.164062 -0.851562 1.09375 -0.742188 1 -0.640625 L 0.640625 -0.265625 L 0.609375 -0.296875 Z M 1.203125 -0.296875 "/></g></g></g></g><g clip-path="url(#50e16e1f1d)"><g fill="#e90000" fill-opacity="1"><g transform="translate(8.255192, 3.048007)"><g><path d="M 0.8125 0.03125 C 0.65625 0.03125 0.523438 -0.0078125 0.421875 -0.09375 C 0.316406 -0.175781 0.238281 -0.285156 0.1875 -0.421875 C 0.132812 -0.566406 0.109375 -0.734375 0.109375 -0.921875 C 0.109375 -1.109375 0.132812 -1.273438 0.1875 -1.421875 C 0.238281 -1.566406 0.316406 -1.675781 0.421875 -1.75 C 0.523438 -1.832031 0.65625 -1.875 0.8125 -1.875 C 0.957031 -1.875 1.082031 -1.832031 1.1875 -1.75 C 1.300781 -1.675781 1.382812 -1.566406 1.4375 -1.421875 C 1.488281 -1.273438 1.515625 -1.109375 1.515625 -0.921875 C 1.515625 -0.734375 1.488281 -0.566406 1.4375 -0.421875 C 1.382812 -0.285156 1.300781 -0.175781 1.1875 -0.09375 C 1.082031 -0.0078125 0.957031 0.03125 0.8125 0.03125 Z M 0.8125 -0.296875 C 0.882812 -0.296875 0.945312 -0.316406 1 -0.359375 C 1.050781 -0.410156 1.09375 -0.484375 1.125 -0.578125 C 1.15625 -0.671875 1.171875 -0.785156 1.171875 -0.921875 C 1.171875 -1.066406 1.15625 -1.1875 1.125 -1.28125 C 1.09375 -1.375 1.050781 -1.441406 1 -1.484375 C 0.945312 -1.535156 0.882812 -1.5625 0.8125 -1.5625 C 0.738281 -1.5625 0.671875 -1.535156 0.609375 -1.484375 C 0.554688 -1.441406 0.515625 -1.375 0.484375 -1.28125 C 0.460938 -1.1875 0.453125 -1.066406 0.453125 -0.921875 C 0.453125 -0.785156 0.460938 -0.671875 0.484375 -0.578125 C 0.515625 -0.484375 0.554688 -0.410156 0.609375 -0.359375 C 0.671875 -0.316406 0.738281 -0.296875 0.8125 -0.296875 Z M 0.8125 -0.296875 "/></g></g></g></g><g clip-path="url(#f8803c646b)"><g fill="#e90000" fill-opacity="1"><g transform="translate(9.718716, 3.048007)"><g><path d="M 0.296875 -0.375 C 0.304688 -0.375 0.320312 -0.367188 0.34375 -0.359375 C 0.363281 -0.359375 0.382812 -0.347656 0.40625 -0.328125 C 0.4375 -0.304688 0.472656 -0.285156 0.515625 -0.265625 C 0.554688 -0.253906 0.601562 -0.25 0.65625 -0.25 C 0.707031 -0.25 0.757812 -0.257812 0.8125 -0.28125 C 0.863281 -0.3125 0.90625 -0.351562 0.9375 -0.40625 C 0.96875 -0.457031 0.984375 -0.515625 0.984375 -0.578125 C 0.984375 -0.648438 0.96875 -0.707031 0.9375 -0.75 C 0.914062 -0.789062 0.878906 -0.820312 0.828125 -0.84375 C 0.785156 -0.875 0.738281 -0.890625 0.6875 -0.890625 C 0.644531 -0.890625 0.609375 -0.882812 0.578125 -0.875 C 0.554688 -0.863281 0.535156 -0.851562 0.515625 -0.84375 C 0.492188 -0.84375 0.46875 -0.84375 0.4375 -0.84375 C 0.394531 -0.84375 0.363281 -0.851562 0.34375 -0.875 C 0.320312 -0.90625 0.3125 -0.941406 0.3125 -0.984375 C 0.3125 -1.003906 0.316406 -1.023438 0.328125 -1.046875 C 0.335938 -1.066406 0.347656 -1.085938 0.359375 -1.109375 L 0.828125 -1.609375 L 0.90625 -1.546875 L 0.25 -1.546875 C 0.207031 -1.546875 0.171875 -1.554688 0.140625 -1.578125 C 0.117188 -1.609375 0.109375 -1.644531 0.109375 -1.6875 C 0.109375 -1.726562 0.117188 -1.757812 0.140625 -1.78125 C 0.171875 -1.8125 0.207031 -1.828125 0.25 -1.828125 L 1.0625 -1.828125 C 1.113281 -1.828125 1.148438 -1.8125 1.171875 -1.78125 C 1.203125 -1.757812 1.21875 -1.722656 1.21875 -1.671875 C 1.21875 -1.648438 1.210938 -1.628906 1.203125 -1.609375 C 1.191406 -1.585938 1.175781 -1.566406 1.15625 -1.546875 L 0.6875 -1.046875 L 0.625 -1.140625 C 0.644531 -1.148438 0.671875 -1.15625 0.703125 -1.15625 C 0.734375 -1.164062 0.765625 -1.171875 0.796875 -1.171875 C 0.898438 -1.171875 0.988281 -1.144531 1.0625 -1.09375 C 1.132812 -1.039062 1.191406 -0.96875 1.234375 -0.875 C 1.273438 -0.789062 1.296875 -0.703125 1.296875 -0.609375 C 1.296875 -0.472656 1.265625 -0.359375 1.203125 -0.265625 C 1.148438 -0.171875 1.070312 -0.0976562 0.96875 -0.046875 C 0.863281 0.00390625 0.738281 0.03125 0.59375 0.03125 C 0.53125 0.03125 0.46875 0.0195312 0.40625 0 C 0.34375 -0.0078125 0.285156 -0.03125 0.234375 -0.0625 C 0.203125 -0.0820312 0.175781 -0.101562 0.15625 -0.125 C 0.144531 -0.15625 0.140625 -0.179688 0.140625 -0.203125 C 0.140625 -0.242188 0.15625 -0.28125 0.1875 -0.3125 C 0.21875 -0.351562 0.253906 -0.375 0.296875 -0.375 Z M 0.296875 -0.375 "/></g></g></g></g><g clip-path="url(#db34be6c5d)"><g fill="#e90000" fill-opacity="1"><g transform="translate(10.978825, 3.048007)"><g><path d="M 0.8125 0.03125 C 0.65625 0.03125 0.523438 -0.0078125 0.421875 -0.09375 C 0.316406 -0.175781 0.238281 -0.285156 0.1875 -0.421875 C 0.132812 -0.566406 0.109375 -0.734375 0.109375 -0.921875 C 0.109375 -1.109375 0.132812 -1.273438 0.1875 -1.421875 C 0.238281 -1.566406 0.316406 -1.675781 0.421875 -1.75 C 0.523438 -1.832031 0.65625 -1.875 0.8125 -1.875 C 0.957031 -1.875 1.082031 -1.832031 1.1875 -1.75 C 1.300781 -1.675781 1.382812 -1.566406 1.4375 -1.421875 C 1.488281 -1.273438 1.515625 -1.109375 1.515625 -0.921875 C 1.515625 -0.734375 1.488281 -0.566406 1.4375 -0.421875 C 1.382812 -0.285156 1.300781 -0.175781 1.1875 -0.09375 C 1.082031 -0.0078125 0.957031 0.03125 0.8125 0.03125 Z M 0.8125 -0.296875 C 0.882812 -0.296875 0.945312 -0.316406 1 -0.359375 C 1.050781 -0.410156 1.09375 -0.484375 1.125 -0.578125 C 1.15625 -0.671875 1.171875 -0.785156 1.171875 -0.921875 C 1.171875 -1.066406 1.15625 -1.1875 1.125 -1.28125 C 1.09375 -1.375 1.050781 -1.441406 1 -1.484375 C 0.945312 -1.535156 0.882812 -1.5625 0.8125 -1.5625 C 0.738281 -1.5625 0.671875 -1.535156 0.609375 -1.484375 C 0.554688 -1.441406 0.515625 -1.375 0.484375 -1.28125 C 0.460938 -1.1875 0.453125 -1.066406 0.453125 -0.921875 C 0.453125 -0.785156 0.460938 -0.671875 0.484375 -0.578125 C 0.515625 -0.484375 0.554688 -0.410156 0.609375 -0.359375 C 0.671875 -0.316406 0.738281 -0.296875 0.8125 -0.296875 Z M 0.8125 -0.296875 "/></g></g></g></g></g></g><g transform="matrix(1, 0, 0, 1, 599, 117)"><g clip-path="url(#222eed5aa4)"><g clip-path="url(#cd513963da)"><g fill="#e90000" fill-opacity="1"><g transform="translate(0.781703, 3.041959)"><g><path d="M 0.359375 -1.84375 C 0.390625 -1.84375 0.414062 -1.835938 0.4375 -1.828125 C 0.46875 -1.816406 0.488281 -1.800781 0.5 -1.78125 L 1.140625 -0.796875 L 1.015625 -0.796875 L 1.671875 -1.78125 C 1.703125 -1.820312 1.742188 -1.84375 1.796875 -1.84375 C 1.835938 -1.84375 1.875 -1.828125 1.90625 -1.796875 C 1.945312 -1.773438 1.96875 -1.738281 1.96875 -1.6875 L 1.96875 -0.15625 C 1.96875 -0.113281 1.953125 -0.078125 1.921875 -0.046875 C 1.890625 -0.015625 1.847656 0 1.796875 0 C 1.753906 0 1.71875 -0.015625 1.6875 -0.046875 C 1.65625 -0.078125 1.640625 -0.113281 1.640625 -0.15625 L 1.640625 -1.40625 L 1.734375 -1.375 L 1.203125 -0.5625 C 1.179688 -0.539062 1.160156 -0.519531 1.140625 -0.5 C 1.117188 -0.488281 1.09375 -0.484375 1.0625 -0.484375 C 1.039062 -0.484375 1.019531 -0.488281 1 -0.5 C 0.976562 -0.519531 0.957031 -0.539062 0.9375 -0.5625 L 0.4375 -1.359375 L 0.5 -1.5 L 0.5 -0.15625 C 0.5 -0.113281 0.484375 -0.078125 0.453125 -0.046875 C 0.429688 -0.015625 0.394531 0 0.34375 0 C 0.300781 0 0.265625 -0.015625 0.234375 -0.046875 C 0.210938 -0.078125 0.203125 -0.113281 0.203125 -0.15625 L 0.203125 -1.6875 C 0.203125 -1.726562 0.21875 -1.765625 0.25 -1.796875 C 0.28125 -1.828125 0.316406 -1.84375 0.359375 -1.84375 Z M 0.359375 -1.84375 "/></g></g></g></g><g clip-path="url(#e216c9339c)"><g fill="#e90000" fill-opacity="1"><g transform="translate(2.78678, 3.041959)"><g><path d="M 0.53125 -0.15625 C 0.53125 -0.113281 0.507812 -0.078125 0.46875 -0.046875 C 0.4375 -0.015625 0.398438 0 0.359375 0 C 0.304688 0 0.265625 -0.015625 0.234375 -0.046875 C 0.210938 -0.078125 0.203125 -0.113281 0.203125 -0.15625 L 0.203125 -1.6875 C 0.203125 -1.726562 0.21875 -1.765625 0.25 -1.796875 C 0.28125 -1.828125 0.316406 -1.84375 0.359375 -1.84375 C 0.410156 -1.84375 0.453125 -1.828125 0.484375 -1.796875 C 0.515625 -1.765625 0.53125 -1.726562 0.53125 -1.6875 Z M 0.53125 -0.15625 "/></g></g></g></g><g clip-path="url(#d274168cec)"><g fill="#e90000" fill-opacity="1"><g transform="translate(3.354755, 3.041959)"><g><path d="M 1.21875 -0.3125 C 1.257812 -0.3125 1.296875 -0.296875 1.328125 -0.265625 C 1.359375 -0.234375 1.375 -0.195312 1.375 -0.15625 C 1.375 -0.113281 1.359375 -0.078125 1.328125 -0.046875 C 1.296875 -0.015625 1.257812 0 1.21875 0 L 0.359375 0 C 0.316406 0 0.28125 -0.015625 0.25 -0.046875 C 0.21875 -0.078125 0.203125 -0.113281 0.203125 -0.15625 L 0.203125 -1.6875 C 0.203125 -1.726562 0.21875 -1.765625 0.25 -1.796875 C 0.28125 -1.828125 0.316406 -1.84375 0.359375 -1.84375 C 0.410156 -1.84375 0.453125 -1.828125 0.484375 -1.796875 C 0.515625 -1.765625 0.53125 -1.726562 0.53125 -1.6875 L 0.53125 -0.265625 L 0.46875 -0.3125 Z M 1.21875 -0.3125 "/></g></g></g></g><g clip-path="url(#7bc0dddc74)"><g fill="#e90000" fill-opacity="1"><g transform="translate(4.680908, 3.041959)"><g><path d="M 0.875 -1.4375 L 0.3125 -0.09375 C 0.289062 -0.0625 0.269531 -0.0351562 0.25 -0.015625 C 0.226562 0.00390625 0.203125 0.015625 0.171875 0.015625 C 0.117188 0.015625 0.0820312 0.00390625 0.0625 -0.015625 C 0.0390625 -0.046875 0.03125 -0.0820312 0.03125 -0.125 C 0.03125 -0.132812 0.03125 -0.148438 0.03125 -0.171875 L 0.6875 -1.75 C 0.707031 -1.789062 0.726562 -1.816406 0.75 -1.828125 C 0.78125 -1.847656 0.8125 -1.859375 0.84375 -1.859375 C 0.875 -1.859375 0.90625 -1.847656 0.9375 -1.828125 C 0.96875 -1.804688 0.988281 -1.78125 1 -1.75 L 1.640625 -0.203125 C 1.648438 -0.179688 1.65625 -0.160156 1.65625 -0.140625 C 1.65625 -0.0976562 1.640625 -0.0625 1.609375 -0.03125 C 1.578125 0 1.546875 0.015625 1.515625 0.015625 C 1.484375 0.015625 1.453125 0.00390625 1.421875 -0.015625 C 1.398438 -0.0351562 1.382812 -0.0625 1.375 -0.09375 L 0.796875 -1.421875 Z M 0.390625 -0.421875 L 0.53125 -0.71875 L 1.25 -0.71875 L 1.296875 -0.421875 Z M 0.390625 -0.421875 "/></g></g></g></g><g clip-path="url(#3731a02608)"><g fill="#e90000" fill-opacity="1"><g transform="translate(6.210475, 3.041959)"><g><path d="M 1.59375 -1.84375 C 1.632812 -1.84375 1.671875 -1.828125 1.703125 -1.796875 C 1.734375 -1.773438 1.75 -1.742188 1.75 -1.703125 L 1.75 -0.15625 C 1.75 -0.113281 1.734375 -0.078125 1.703125 -0.046875 C 1.671875 -0.015625 1.628906 0 1.578125 0 C 1.554688 0 1.53125 -0.00390625 1.5 -0.015625 C 1.476562 -0.0234375 1.460938 -0.0351562 1.453125 -0.046875 L 0.421875 -1.359375 L 0.484375 -1.40625 L 0.484375 -0.140625 C 0.484375 -0.0976562 0.46875 -0.0625 0.4375 -0.03125 C 0.414062 -0.0078125 0.382812 0 0.34375 0 C 0.300781 0 0.265625 -0.0078125 0.234375 -0.03125 C 0.210938 -0.0625 0.203125 -0.0976562 0.203125 -0.140625 L 0.203125 -1.6875 C 0.203125 -1.726562 0.21875 -1.765625 0.25 -1.796875 C 0.28125 -1.828125 0.316406 -1.84375 0.359375 -1.84375 C 0.378906 -1.84375 0.398438 -1.835938 0.421875 -1.828125 C 0.453125 -1.816406 0.476562 -1.804688 0.5 -1.796875 L 1.5 -0.5 L 1.453125 -0.46875 L 1.453125 -1.703125 C 1.453125 -1.742188 1.460938 -1.773438 1.484375 -1.796875 C 1.515625 -1.828125 1.550781 -1.84375 1.59375 -1.84375 Z M 1.59375 -1.84375 "/></g></g></g></g></g></g><g fill="#e90000" fill-opacity="1"><g transform="translate(123.300092, 133.299243)"><g><path d="M 2.484375 0 L 2.484375 -130.015625 L 21.515625 -130.015625 L 21.21875 -71.421875 L 23.515625 -71.421875 L 27.0625 -130.015625 L 46.9375 -130.015625 L 40.734375 -65.015625 L 47.328125 0 L 27.25 0 L 23.515625 -58.03125 L 21.21875 -58.03125 L 21.515625 0 Z M 2.484375 0 "/></g></g></g><g fill="#e90000" fill-opacity="1"><g transform="translate(174.310319, 133.299243)"><g><path d="M 2.484375 0 L 2.484375 -130.015625 L 21.125 -130.015625 L 21.125 -71.421875 L 26.484375 -71.421875 L 26.484375 -130.015625 L 45.125 -130.015625 L 45.125 0 L 26.484375 0 L 26.484375 -58.125 L 21.125 -58.125 L 21.125 0 Z M 2.484375 0 "/></g></g></g><g fill="#e90000" fill-opacity="1"><g transform="translate(224.268937, 133.299243)"><g><path d="M 26.296875 0 L 25.71875 -20.265625 L 20.359375 -20.265625 L 19.796875 0 L 0.671875 0 L 12.234375 -130.015625 L 33.75 -130.015625 L 45.3125 0 Z M 20.65625 -31.546875 L 25.328125 -31.546875 L 23.328125 -97.703125 L 22.5625 -97.703125 Z M 20.65625 -31.546875 "/></g></g></g><g fill="#e90000" fill-opacity="1"><g transform="translate(272.602346, 133.299243)"><g><path d="M 2.484375 0 L 2.484375 -130.015625 L 21.515625 -130.015625 L 21.515625 -14.046875 L 32.125 -14.046875 L 32.125 0 Z M 2.484375 0 "/></g></g></g><g fill="#e90000" fill-opacity="1"><g transform="translate(308.412075, 133.299243)"><g><path d="M 2.484375 0 L 2.484375 -130.015625 L 34.984375 -130.015625 L 34.984375 -116.546875 L 21.796875 -116.546875 L 21.796875 -69.796875 L 32.21875 -69.796875 L 32.21875 -59.28125 L 21.796875 -59.28125 L 21.796875 -13.09375 L 35.1875 -13.09375 L 35.1875 0 Z M 2.484375 0 "/></g></g></g><g fill="#e90000" fill-opacity="1"><g transform="translate(346.611819, 133.299243)"><g><path d="M 2.484375 0 L 2.484375 -130.015625 L 21.515625 -130.015625 L 21.21875 -71.421875 L 23.515625 -71.421875 L 27.0625 -130.015625 L 46.9375 -130.015625 L 40.734375 -65.015625 L 47.328125 0 L 27.25 0 L 23.515625 -58.03125 L 21.21875 -58.03125 L 21.515625 0 Z M 2.484375 0 "/></g></g></g><g fill="#e90000" fill-opacity="1"><g transform="translate(396.857238, 133.299243)"><g><path d="M 23.703125 1.71875 C 9.492188 1.71875 2.390625 -3.664062 2.390625 -14.4375 L 2.390625 -130.015625 L 21.125 -130.015625 L 21.125 -16.4375 C 21.125 -13.957031 22.019531 -12.71875 23.8125 -12.71875 C 25.59375 -12.71875 26.484375 -13.957031 26.484375 -16.4375 L 26.484375 -130.015625 L 45.125 -130.015625 L 45.125 -14.4375 C 45.125 -3.664062 37.984375 1.71875 23.703125 1.71875 Z M 23.703125 1.71875 "/></g></g></g><g fill="#e90000" fill-opacity="1"><g transform="translate(446.720272, 133.299243)"><g><path d="M 1.53125 0 L 1.53125 -11.859375 L 16.828125 -115.875 L 2.109375 -115.875 L 2.109375 -130.015625 L 38.71875 -130.015625 L 38.71875 -118.265625 L 23.515625 -14.15625 L 39 -14.15625 L 39 0 Z M 1.53125 0 "/></g></g></g><g fill="#e90000" fill-opacity="1"><g transform="translate(489.700036, 133.299243)"><g><path d="M 1.53125 0 L 1.53125 -11.859375 L 16.828125 -115.875 L 2.109375 -115.875 L 2.109375 -130.015625 L 38.71875 -130.015625 L 38.71875 -118.265625 L 23.515625 -14.15625 L 39 -14.15625 L 39 0 Z M 1.53125 0 "/></g></g></g><g fill="#e90000" fill-opacity="1"><g transform="translate(532.679801, 133.299243)"><g><path d="M 26.296875 0 L 25.71875 -20.265625 L 20.359375 -20.265625 L 19.796875 0 L 0.671875 0 L 12.234375 -130.015625 L 33.75 -130.015625 L 45.3125 0 Z M 20.65625 -31.546875 L 25.328125 -31.546875 L 23.328125 -97.703125 L 22.5625 -97.703125 Z M 20.65625 -31.546875 "/></g></g></g><g fill="#e90000" fill-opacity="1"><g transform="translate(581.013244, 133.299243)"><g><path d="M 2.484375 0 L 2.484375 -130.015625 L 26.390625 -130.015625 L 31.078125 -37 L 31.9375 -37 L 36.609375 -130.015625 L 60.515625 -130.015625 L 60.515625 0 L 43.984375 0 L 46.84375 -90.921875 L 45.796875 -90.921875 L 38.34375 0 L 24.671875 0 L 16.921875 -91.015625 L 15.78125 -91.015625 L 19.03125 0 Z M 2.484375 0 "/></g></g></g><g fill="#e90000" fill-opacity="1"><g transform="translate(646.363531, 133.299243)"><g><path d="M 26.296875 0 L 25.71875 -20.265625 L 20.359375 -20.265625 L 19.796875 0 L 0.671875 0 L 12.234375 -130.015625 L 33.75 -130.015625 L 45.3125 0 Z M 20.65625 -31.546875 L 25.328125 -31.546875 L 23.328125 -97.703125 L 22.5625 -97.703125 Z M 20.65625 -31.546875 "/></g></g></g><g fill="#e90000" fill-opacity="1"><g transform="translate(694.696974, 133.299243)"><g><path d="M 2.484375 0 L 2.484375 -130.015625 L 22.375 -130.015625 L 24.375 -111 L 30.109375 -42.25 L 31.078125 -42.25 L 27.921875 -130.015625 L 44.75 -130.015625 L 44.75 0 L 24.859375 0 L 22.75 -18.921875 L 16.640625 -90.625 L 15.484375 -90.625 L 19.03125 0 Z M 2.484375 0 "/></g></g></g><g fill="#e90000" fill-opacity="1"><g transform="translate(744.273184, 133.299243)"><g/></g></g><g fill="#e90000" fill-opacity="1"><g transform="translate(767.941607, 133.299243)"><g><path d="M 26.296875 0 L 25.71875 -20.265625 L 20.359375 -20.265625 L 19.796875 0 L 0.671875 0 L 12.234375 -130.015625 L 33.75 -130.015625 L 45.3125 0 Z M 20.65625 -31.546875 L 25.328125 -31.546875 L 23.328125 -97.703125 L 22.5625 -97.703125 Z M 20.65625 -31.546875 "/></g></g></g><g fill="#e90000" fill-opacity="1"><g transform="translate(816.275005, 133.299243)"><g><path d="M 2.484375 0 L 2.484375 -130.015625 L 22.375 -130.015625 L 24.375 -111 L 30.109375 -42.25 L 31.078125 -42.25 L 27.921875 -130.015625 L 44.75 -130.015625 L 44.75 0 L 24.859375 0 L 22.75 -18.921875 L 16.640625 -90.625 L 15.484375 -90.625 L 19.03125 0 Z M 2.484375 0 "/></g></g></g><g fill="#e90000" fill-opacity="1"><g transform="translate(865.851261, 133.299243)"><g><path d="M 2.109375 -19.3125 L 2.109375 -111.46875 C 2.109375 -117.96875 3.988281 -122.9375 7.75 -126.375 C 11.507812 -129.820312 17.050781 -131.546875 24.375 -131.546875 C 39.226562 -131.546875 46.65625 -124.632812 46.65625 -110.8125 L 46.65625 -19.3125 C 46.65625 -5.414062 39.226562 1.53125 24.375 1.53125 C 17.050781 1.53125 11.632812 -0.21875 8.125 -3.71875 C 4.625 -7.226562 2.617188 -12.425781 2.109375 -19.3125 Z M 21.703125 -17.109375 C 21.703125 -15.265625 22.59375 -14.34375 24.375 -14.34375 C 26.164062 -14.34375 27.0625 -15.265625 27.0625 -17.109375 L 27.0625 -112.90625 C 27.0625 -114.757812 26.164062 -115.6875 24.375 -115.6875 C 22.59375 -115.6875 21.703125 -114.757812 21.703125 -112.90625 Z M 21.703125 -17.109375 "/></g></g></g><g fill="#e90000" fill-opacity="1"><g transform="translate(912.368245, 133.299243)"><g><path d="M 13.765625 0 L 13.765625 -40.625 L 0.765625 -130.015625 L 19.984375 -130.015625 L 22.75 -63.765625 L 23.609375 -63.765625 L 26.09375 -130.015625 L 45.609375 -130.015625 L 32.796875 -40.734375 L 32.796875 0 Z M 13.765625 0 "/></g></g></g></svg>