<svg width="238" height="32" viewBox="0 0 238 32" fill="none" xmlns="http://www.w3.org/2000/svg">
<g clip-path="url(#clip0_408_508)">
<path d="M17.9921 3.71172C17.9921 1.15172 15.5601 0.511719 13.6401 0.511719V0.895719C14.7921 0.895719 15.6881 1.27972 15.6881 2.17572C15.6881 2.68772 15.3041 3.45572 14.1521 3.45572C13.2561 3.45572 11.3361 2.94372 9.92813 2.43172C8.26413 1.79172 6.72813 1.27972 5.44813 1.27972C2.88813 1.27972 1.09613 3.19972 1.09613 5.37572C1.09613 7.29572 2.50413 7.93572 3.01613 8.19172L3.14413 7.93572C2.88813 7.67972 2.50413 7.42372 2.50413 6.65572C2.50413 6.14372 3.01613 5.24772 4.29613 5.24772C5.44813 5.24772 6.98413 5.75972 9.03213 6.39972C10.8241 6.91172 12.7441 7.29572 13.7681 7.42372V11.3917L11.8481 13.0557V13.1837L13.7681 14.8477V20.3517C12.7441 20.9917 11.5921 21.1197 10.5681 21.1197C8.64813 21.1197 6.98413 20.6077 5.57613 19.0717L10.8241 16.5117V7.67972L4.42413 10.4957C4.93613 8.83172 6.34413 7.67972 7.75213 6.91172L7.62413 6.52772C3.78413 7.55172 0.328125 11.1357 0.328125 15.4877C0.328125 20.6077 4.55212 24.4477 9.28813 24.4477C14.4081 24.4477 17.7361 20.3517 17.7361 16.1277H17.4801C16.7121 17.7917 15.5601 19.3277 14.1521 20.0957V14.8477L16.2001 13.1837V13.0557L14.1521 11.3917V7.42372C16.0721 7.42372 17.9921 6.14372 17.9921 3.71172ZM6.85613 17.7917L5.32013 18.5597C4.42413 17.4077 3.91213 15.8717 3.91213 13.6957C3.91213 12.7997 3.91213 11.7757 4.16813 11.0077L6.85613 9.85572V17.7917ZM20.4241 20.7357L18.7601 22.0157L19.0161 22.2717L19.7841 21.6317L22.6001 24.1917L26.4401 21.6317L26.3121 21.3757L25.2881 22.0157L24.0081 20.7357V12.0317L25.0321 11.2637L27.2081 13.0557V20.8637C27.2081 25.7277 26.1841 26.4957 24.0081 27.2637V27.6477C27.5921 27.7757 30.9201 26.6237 30.9201 20.3517V11.9037L32.0721 11.0077L31.8161 10.7517L30.7921 11.5197L27.5921 8.83172L24.0081 11.5197V1.02372H23.7521L19.2721 4.09572V4.35172C19.7841 4.60772 20.5521 4.86372 20.5521 6.27172L20.4241 20.7357ZM43.8481 19.3277L40.6481 21.7597L37.4481 19.1997V17.6637L43.4641 13.5677V13.4397L40.3921 8.83172L33.7361 12.4157V20.8637L32.4561 21.8877L32.7121 22.1437L33.8641 21.2477L38.2161 24.4477L43.9761 19.8397L43.8481 19.3277ZM37.4481 17.1517V10.8797L37.7041 10.7517L40.5201 15.2317L37.4481 17.1517ZM68.2961 2.55972C68.2961 2.17572 68.1681 1.79172 68.0401 1.40772H67.7841C67.4001 2.43172 66.8881 2.94372 65.6081 2.94372C64.4561 2.94372 63.6881 2.30372 63.1761 1.79172L59.4641 6.01572L59.7201 6.27172L61.0001 5.11972C61.7681 5.75972 62.4081 6.27172 64.2001 6.39972V17.0237L56.6481 4.09572C56.0081 3.07172 55.1121 1.66372 53.3201 1.66372C51.2721 1.66372 49.4801 3.45572 49.7361 6.27172H50.1201C50.2481 5.50372 50.6321 4.60772 51.5281 4.60772C52.1681 4.60772 52.8081 5.24772 53.1921 5.88772V10.1117C50.8881 10.1117 49.3521 11.1357 49.3521 13.0557C49.3521 14.0797 49.8641 15.6157 51.4001 15.9997V15.7437C51.1441 15.4877 51.0161 15.2317 51.0161 14.8477C51.0161 14.2077 51.5281 13.6957 52.4241 13.6957H53.0641V19.0717C50.3761 19.0717 48.2001 20.6077 48.2001 23.1677C48.2001 25.5997 50.2481 26.7517 52.5521 26.6237V26.3677C51.1441 26.2397 50.5041 25.5997 50.5041 24.7037C50.5041 23.5517 51.2721 23.0397 52.2961 23.0397C53.3201 23.0397 54.2161 23.6797 54.8561 24.4477L58.5681 20.3517L58.3121 20.0957L57.4161 21.1197C56.0081 19.8397 55.2401 19.4557 53.5761 19.1997V6.39972L63.8161 24.3197H64.5841V6.39972C66.5041 6.27172 68.2961 4.73572 68.2961 2.55972ZM77.6401 19.3277L74.4401 21.7597L71.2401 19.1997V17.6637L77.2561 13.5677V13.4397L74.1841 8.83172L67.5281 12.4157V20.8637L66.2481 21.8877L66.5041 22.1437L67.6561 21.2477L72.0081 24.4477L77.7681 19.8397L77.6401 19.3277ZM71.2401 17.1517V10.8797L71.4961 10.7517L74.3121 15.2317L71.2401 17.1517ZM98.5041 10.2397L97.6081 10.8797L95.1761 8.83172L92.3601 11.3917L93.5121 12.5437V22.1437L90.4401 20.2237V12.2877L91.4641 11.6477L88.5201 8.83172L85.7041 11.3917L86.8561 12.5437V21.7597L86.4721 22.0157L83.7841 20.0957V12.4157C83.7841 10.6237 82.8881 10.1117 81.8641 9.47172C80.9681 8.83172 80.4561 8.44772 80.4561 7.55172C80.4561 6.78372 81.2241 6.39972 81.6081 6.14372V5.88772C80.5841 5.88772 77.8961 6.91172 77.8961 9.34372C77.8961 10.6237 78.5361 11.1357 79.1761 11.7757C79.8161 12.4157 80.4561 12.9277 80.4561 14.0797V21.5037L79.0481 22.5277L79.3041 22.7837L80.5841 21.7597L83.5281 24.3197L86.7281 22.1437L90.3121 24.3197L97.0961 20.3517V11.7757L98.7601 10.4957L98.5041 10.2397ZM122.312 3.19972L121.032 4.35172L118.216 1.79172L113.992 4.86372V2.04772H113.608L113.736 22.7837C113.352 22.7837 112.2 22.5277 111.304 22.2717L111.048 4.99172C111.048 3.71172 110.152 1.91972 107.848 1.91972C105.544 1.91972 104.008 3.71172 104.008 5.50372H104.392C104.52 4.73572 104.904 4.09572 105.672 4.09572C106.44 4.09572 107.08 4.60772 107.08 6.27172V11.2637C104.776 11.3917 103.368 12.6717 103.368 14.3357C103.368 15.3597 103.88 16.8957 105.416 16.8957V16.6397C104.904 16.3837 104.776 15.9997 104.776 15.7437C104.776 14.9757 105.416 14.7197 106.44 14.7197H106.952V22.6557C105.032 23.2957 104.264 24.7037 104.264 26.2397C104.264 28.4157 105.928 29.9517 108.488 29.9517C110.28 29.9517 111.816 29.6957 113.352 29.3117C114.632 29.0557 116.296 28.6717 117.064 28.6717C118.088 28.6717 118.472 29.1837 118.472 29.8237C118.472 30.7197 118.088 31.1037 117.576 31.2317V31.4877C119.624 31.1037 120.904 29.8237 120.904 27.9037C120.904 25.9837 118.984 24.8317 116.936 24.8317C115.912 24.8317 113.736 25.2157 112.2 25.4717C110.408 25.8557 108.616 26.1117 108.104 26.1117C107.208 26.1117 106.184 25.7277 106.184 24.4477C106.184 23.4237 107.08 22.5277 109.256 22.5277C110.408 22.5277 111.816 22.6557 113.224 23.0397C114.76 23.4237 116.168 23.8077 117.448 23.8077C119.368 23.8077 121.032 23.1677 121.032 20.4797V4.73572L122.568 3.45572L122.312 3.19972ZM117.064 11.0077C116.68 11.3917 116.168 11.7757 115.528 11.7757C114.888 11.7757 114.248 11.3917 113.992 11.0077V5.37572L115.272 4.47972L117.064 6.14372V11.0077ZM117.064 14.8477C116.808 14.5917 116.168 14.2077 115.528 14.2077C114.888 14.2077 114.248 14.5917 113.992 14.8477V11.5197C114.248 11.7757 114.888 12.1597 115.528 12.1597C116.168 12.1597 116.808 11.7757 117.064 11.5197V14.8477ZM117.064 20.8637C117.064 21.8877 116.424 22.9117 115.016 22.9117H113.992V15.3597C114.248 15.1037 114.888 14.7197 115.528 14.7197C116.168 14.7197 116.68 15.1037 117.064 15.3597V20.8637ZM134.6 11.7757L130.504 8.83172L124.232 12.4157V20.7357L122.952 21.7597L123.08 22.0157L124.104 21.2477L128.2 24.3197L134.6 20.4797V11.7757ZM127.688 19.8397V10.6237L130.888 12.9277V22.0157L127.688 19.8397ZM146.76 9.08772H146.504C146.12 9.34372 145.736 9.59972 145.352 9.59972C144.84 9.59972 144.2 9.34372 143.944 8.95972H143.688L141.512 11.3917L139.336 8.95972L135.496 11.5197L135.624 11.7757L136.648 11.1357L137.928 12.5437V20.6077L136.264 21.8877L136.52 22.1437L137.288 21.5037L140.36 24.0637L144.328 21.3757L144.2 21.1197L143.048 21.7597L141.512 20.4797V11.5197C142.152 12.1597 142.92 12.7997 143.816 12.7997C145.608 12.9277 146.632 11.1357 146.76 9.08772ZM162.12 21.3757L157.768 24.3197L151.88 15.3597L156.104 8.83172H156.36C156.872 9.34372 157.64 9.85572 158.536 9.85572C159.432 9.85572 160.072 9.34372 160.456 8.83172H160.712C160.584 11.3917 158.792 12.9277 157.512 12.9277C156.232 12.9277 155.592 12.2877 154.824 11.9037L154.44 12.5437L160.84 22.0157L162.12 21.2477V21.3757ZM148.04 20.7357L146.376 22.0157L146.632 22.2717L147.4 21.6317L150.216 24.1917L154.056 21.6317L153.8 21.3757L152.776 22.0157L151.496 20.7357V1.02372H151.368L146.76 4.09572V4.35172C147.272 4.60772 148.04 4.73572 148.04 6.27172V20.7357ZM183.368 3.71172C183.368 1.15172 180.936 0.511719 179.016 0.511719V0.895719C180.168 0.895719 181.064 1.27972 181.064 2.17572C181.064 2.68772 180.68 3.45572 179.528 3.45572C178.632 3.45572 176.712 2.94372 175.304 2.43172C173.64 1.91972 172.104 1.40772 170.824 1.40772C168.264 1.40772 166.472 3.32772 166.472 5.50372C166.472 7.42372 167.88 8.06372 168.392 8.31972L168.52 8.06372C168.136 7.80772 167.752 7.55172 167.752 6.78372C167.752 6.27172 168.264 5.37572 169.544 5.37572C170.696 5.37572 172.232 5.88772 174.28 6.52772C176.072 7.03972 177.992 7.42372 179.016 7.55172V11.5197L177.096 13.1837V13.3117L179.016 14.9757V20.4797C177.992 21.1197 176.84 21.2477 175.816 21.2477C173.896 21.2477 172.232 20.7357 170.824 19.1997L176.072 16.6397V7.67972L169.672 10.4957C170.312 8.83172 171.72 7.67972 173 6.78372L172.872 6.52772C169.032 7.55172 165.576 11.0077 165.576 15.3597C165.576 20.4797 169.8 24.3197 174.536 24.3197C179.656 24.3197 182.984 20.2237 182.984 15.9997H182.728C181.96 17.6637 180.808 19.1997 179.4 19.9677V14.7197L181.448 13.0557V12.9277L179.528 11.2637V7.42372C181.448 7.42372 183.368 6.14372 183.368 3.71172ZM172.232 17.7917L170.696 18.5597C169.8 17.4077 169.288 15.8717 169.288 13.6957C169.288 12.7997 169.416 11.7757 169.672 11.0077L172.36 9.85572L172.232 17.7917ZM187.848 2.43172H187.72L185.16 4.60772V4.73572L187.336 7.16772H187.592L190.152 4.99172V4.86372L187.848 2.43172ZM191.688 21.3757L190.664 22.0157L189.384 20.7357V11.9037L190.664 11.0077L190.408 10.7517L189.512 11.5197L187.208 8.83172L183.496 11.3917L183.752 11.7757L184.648 11.1357L185.8 12.5437V20.8637L184.136 22.1437L184.264 22.3997L185.16 21.7597L187.976 24.3197L191.816 21.7597L191.688 21.3757ZM213.064 21.2477L212.168 21.8877L210.76 20.6077V11.9037L212.04 10.8797L211.784 10.6237L210.76 11.5197L207.816 8.83172L203.976 11.5197L201.032 8.83172L197.448 11.5197L195.144 8.83172L191.432 11.3917L191.56 11.7757L192.456 11.1357L193.736 12.5437V20.8637L192.712 21.8877L195.656 24.3197L198.472 21.7597L197.32 20.6077V11.9037L198.472 11.1357L200.392 12.9277V20.6077L199.368 21.6317L202.312 24.0637L205.128 21.5037L203.976 20.3517V11.9037L205 11.2637L207.048 13.0557V20.7357L206.152 21.6317L209.096 24.3197L213.064 21.6317V21.2477ZM224.2 19.3277L221 21.7597L217.8 19.1997V17.6637L223.816 13.5677V13.4397L220.744 8.83172L214.088 12.4157V21.1197L218.568 24.3197L224.328 19.7117L224.2 19.3277ZM217.8 17.1517V10.8797L218.056 10.7517L220.872 15.2317L217.8 17.1517ZM235.848 15.9997L233.416 14.0797C235.08 12.6717 235.72 10.7517 235.72 9.47172V8.70372H235.464C235.208 9.34372 234.696 9.98372 233.672 9.98372C232.648 9.98372 232.008 9.47172 231.368 8.70372L225.608 11.9037V16.5117L227.784 18.1757C225.608 20.0957 225.224 21.3757 225.224 22.3997C225.224 23.6797 225.864 24.5757 226.888 24.9597L227.016 24.7037C226.76 24.4477 226.504 24.3197 226.504 23.6797C226.504 23.2957 227.016 22.6557 228.04 22.6557C229.32 22.6557 230.088 23.5517 230.472 23.9357L235.976 20.6077V15.9997H235.848ZM234.44 12.1597C233.544 13.6957 231.624 15.2317 230.472 15.9997L229.064 14.8477V10.3677C229.576 11.6477 230.984 12.6717 232.392 12.6717C233.288 12.6717 233.8 12.5437 234.44 12.1597ZM232.264 22.3997C231.624 20.9917 230.088 19.9677 228.552 19.9677C228.168 19.9677 227.144 19.9677 226.12 20.6077C226.76 19.5837 228.424 17.7917 230.6 16.5117L232.136 17.7917L232.264 22.3997Z" fill="white"/>
</g>
<defs>
<clipPath id="clip0_408_508">
<rect width="236.8" height="32" fill="white" transform="translate(0.328125)"/>
</clipPath>
</defs>
</svg>
