<svg width="168" height="32" viewBox="0 0 168 32" fill="none" xmlns="http://www.w3.org/2000/svg">
<g clip-path="url(#clip0_408_476)">
<path d="M111.146 27.6386C113.362 27.6861 115.505 26.8531 117.107 25.3222L120.065 28.5063C118.111 30.5134 115.41 31.9998 111.199 31.9998C103.986 31.9998 99.3303 27.216 99.3303 20.7421C99.3013 19.2911 99.5587 17.8487 100.088 16.4973C100.617 15.1459 101.407 13.9121 102.414 12.8664C103.42 11.8208 104.623 10.9839 105.953 10.4036C107.283 9.82322 108.714 9.51087 110.166 9.48438H110.565C117.726 9.48438 121.785 14.9321 121.431 22.4926H104.484C105.087 25.6315 107.291 27.631 111.146 27.631M116.307 18.8633C115.855 15.9357 114.104 13.7777 110.596 13.7777C109.122 13.6916 107.67 14.1691 106.535 15.1135C105.4 16.0578 104.667 17.3983 104.484 18.8633H116.307Z" fill="white"/>
<path d="M0 27.4048L13.0309 14.1702H0.309361V10.0127H19.0672V14.2532L6.03631 27.4878H19.2407V31.6378H0V27.4048Z" fill="white"/>
<path d="M33.873 27.6386C36.0883 27.6861 38.2319 26.8531 39.8338 25.3222L42.7916 28.5063C40.8374 30.5134 38.1361 31.9998 33.9258 31.9998C26.7124 31.9998 22.0569 27.216 22.0569 20.7421C22.0279 19.2924 22.2848 17.8511 22.8129 16.5007C23.341 15.1503 24.13 13.9171 25.1347 12.8717C26.1395 11.8263 27.3405 10.989 28.6689 10.4078C29.9973 9.82662 31.4273 9.51283 32.877 9.48438H33.2769C40.4375 9.48438 44.4969 14.9321 44.1423 22.4926H27.2104C27.814 25.6315 30.0173 27.631 33.873 27.631M39.034 18.8633C38.5813 15.9357 36.8308 13.7777 33.3222 13.7777C31.8483 13.6916 30.3968 14.1691 29.2619 15.1135C28.127 16.0578 27.3936 17.3983 27.2104 18.8633H39.034Z" fill="white"/>
<path d="M72.2657 20.7649C72.2657 13.8458 77.4343 9.52228 83.1235 9.52228C84.4886 9.50464 85.841 9.78593 87.0858 10.3464C88.3306 10.9069 89.4377 11.733 90.3293 12.7668V0H94.932V31.5775H90.3293V28.5593C89.4545 29.6364 88.3485 30.5029 87.0933 31.0946C85.8381 31.6863 84.4658 31.988 83.0782 31.9774C81.6464 31.9665 80.2307 31.6737 78.9121 31.1157C77.5934 30.5577 76.3975 29.7455 75.3928 28.7253C74.388 27.7052 73.5941 26.4971 73.0562 25.1701C72.5184 23.8431 72.2472 22.4231 72.2581 20.9913C72.2581 20.9007 72.2581 20.8177 72.2581 20.7347M90.5859 20.6895C90.557 18.8581 89.8055 17.1124 88.4952 15.8326C87.1848 14.5529 85.4218 13.8429 83.5903 13.8573C81.7587 13.8718 80.0071 14.6095 78.7171 15.9097C77.4271 17.2099 76.7032 18.9673 76.7032 20.7989C76.7032 22.6305 77.4271 24.3878 78.7171 25.6881C80.0071 26.9883 81.7587 27.726 83.5903 27.7404C85.4218 27.7548 87.1848 27.0448 88.4952 25.7651C89.8055 24.4854 90.557 22.7396 90.5859 20.9083V20.6895Z" fill="white"/>
<path d="M124.406 26.9895L128.571 24.824C129.124 25.8056 129.933 26.618 130.913 27.1737C131.893 27.7295 133.006 28.0075 134.132 27.9779C136.735 27.9779 138.086 26.6424 138.086 25.1258C138.086 23.3979 135.566 23.0055 132.804 22.4472C129.114 21.6926 125.259 20.4552 125.259 16.0034C125.259 12.5853 128.511 9.43136 133.642 9.46909C137.678 9.46909 140.674 11.0687 142.372 13.6643L138.561 15.7846C138.027 14.9934 137.299 14.3516 136.448 13.9198C135.596 13.4881 134.648 13.2807 133.694 13.3172C131.219 13.3172 129.959 14.532 129.959 15.9128C129.959 17.4672 131.959 17.9048 135.083 18.5915C138.644 19.346 142.681 20.5382 142.681 25.0352C142.681 28.0534 140.078 32.0449 133.906 31.9996C129.378 31.9996 126.217 30.1812 124.398 26.9819" fill="white"/>
<path d="M155.192 21.9722L151.54 25.9486V31.5775H146.938V0H151.54V20.6744L161.311 9.94482H166.918L158.444 19.203L167.129 31.5775H161.923L155.192 21.9722Z" fill="white"/>
<path d="M58.3473 9.51438C52.8769 9.51438 48.2969 13.0607 48.2969 18.9461V31.5771H52.9901V19.5045C52.9901 15.9581 55.0274 13.8379 58.5058 13.8379C61.9842 13.8379 63.7196 15.9581 63.7196 19.5045V31.5771H68.3902V18.9386C68.3902 13.0532 63.8102 9.50684 58.3398 9.50684" fill="white"/>
</g>
<defs>
<clipPath id="clip0_408_476">
<rect width="167.13" height="32" fill="white"/>
</clipPath>
</defs>
</svg>
